<svg xmlns="http://www.w3.org/2000/svg" xmlns:xlink="http://www.w3.org/1999/xlink" width="122" height="61" viewBox="0 0 122 61">
  <defs>
    <path id="snapchance_logo_white-a" d="M8.42835,0 C13.7326,0 15.76715,3.2067 16.26135,5.67315 L16.26135,5.67315 L12.4369,6.84565 C12.2213,5.64305 11.2343,3.7618 8.45915,3.7618 C6.39275,3.7618 5.0358,5.08725 5.0358,6.53765 C5.0358,7.73955 5.8072,8.6961 7.4102,9.00375 L7.4102,9.00375 L10.4636,9.59 C14.4417,10.36105 16.5697,12.9507 16.5697,16.0349 C16.5697,19.39665 13.76305,22.78815 8.6744,22.78815 C2.98432733,22.78815 0.414341151,19.1943525 0,16.1157786 L0,15.93655 L3.92595,14.89425 C4.1082947,17.0199962 5.57622852,18.9366263 8.56679197,18.994218 L8.7059,18.99555 C10.98825,18.99555 12.2528,17.8549 12.2528,16.31245 C12.2528,15.0486 11.29625,14.0616 9.60015,13.72245 L9.60015,13.72245 L6.54745,13.10575 C3.06285,12.3963 0.81095,10.14545 0.81095,6.84565 C0.81095,2.95995 4.29625,0 8.42835,0 Z"/>
    <path id="snapchance_logo_white-c" d="M0.3269,5.30145 L4.18845,6.11975 C4.31935,4.7117 5.36655,3.5014 7.2646,3.5014 C9.09755,3.5014 9.9806,4.45025 9.9806,5.5965 C9.9806,6.1516 9.68555,6.61045 8.76995,6.74135 L4.81005,7.3304 C2.12695,7.7231 0,9.32645 0,12.20625 C0,14.7259 2.09405,17.04885 5.53035,17.04885 C7.9191,17.04885 9.457,15.9369 10.27565,14.6608 C10.27565,15.2824 10.34075,16.1665 10.43875,16.5914 L14.43085,16.5914 C14.33355,16.03525 14.2345,14.89005 14.2345,14.0378 L14.2345,6.11975 C14.2345,2.88015 12.33715,0 7.23205,0 C2.91235,0 0.58835,2.7818 0.3269,5.30145 L0.3269,5.30145 Z M4.35225,11.9448 C4.35225,10.7009 5.23635,10.07895 6.3483,9.9155 L9.9806,9.35865 L9.9806,10.07895 C9.9806,12.92655 8.27925,13.80925 6.44665,13.80925 C5.03965,13.80925 4.35225,12.894 4.35225,11.9448 L4.35225,11.9448 Z"/>
    <path id="snapchance_logo_white-e" d="M0.3269,5.30145 L4.18845,6.11975 C4.3197,4.7117 5.36655,3.50175 7.26495,3.50175 C9.09755,3.50175 9.9806,4.4506 9.9806,5.59685 C9.9806,6.1516 9.6859,6.61045 8.76995,6.7417 L4.8104,7.33075 C2.12695,7.7231 0,9.32645 0,12.20625 C0,14.7259 2.09405,17.0492 5.53035,17.0492 C7.9191,17.0492 9.457,15.9369 10.27565,14.6608 C10.27565,15.2824 10.3411,16.1665 10.43875,16.5914 L14.4312,16.5914 C14.33355,16.03525 14.23485,14.89005 14.23485,14.03815 L14.23485,6.11975 C14.23485,2.88015 12.33715,0 7.23205,0 C2.91235,0 0.58835,2.7818 0.3269,5.30145 L0.3269,5.30145 Z M4.35225,11.9448 C4.35225,10.7009 5.23635,10.07895 6.3483,9.9155 L9.9806,9.359 L9.9806,10.07895 C9.9806,12.92655 8.27925,13.80925 6.44665,13.80925 C5.04,13.80925 4.35225,12.894 4.35225,11.9448 L4.35225,11.9448 Z"/>
    <path id="snapchance_logo_white-g" d="M4.4947,2.06745 L4.4947,0.2695 L0,0.2695 L0,16.39155 L4.4947,16.39155 L4.4947,7.40145 C4.4947,6.14285 4.82895,5.1891 5.49885,4.5402 C6.1677,3.89095 6.95205,3.56615 7.85085,3.56615 C9.6684,3.56615 10.57805,4.8048 10.57805,7.2821 L10.57805,16.39155 L15.07345,16.39155 L15.07345,6.59295 C15.07345,4.59515 14.4984,2.996 13.3497,1.7983 C12.20065,0.5992 10.77755,0 9.0797,0 C7.38115,0 5.8527,0.6888 4.4947,2.06745 L4.4947,2.06745 Z"/>
    <path id="snapchance_logo_white-i" d="M4.4947,2.06745 L4.4947,0.2695 L0,0.2695 L0,22.2061 L4.4947,22.2061 L4.4947,14.2639 C5.69345,15.8431 7.27685,16.63165 9.2442,16.63165 C11.2119,16.63165 12.93075,15.83295 14.39935,14.23345 C15.8669,12.63605 16.6012,10.6484 16.6012,8.27085 C16.6012,5.8933 15.8669,3.92105 14.39935,2.3527 C12.93075,0.784 11.2567,0 9.37965,0 C7.50155,0 5.873,0.6888 4.4947,2.06745 L4.4947,2.06745 Z M5.52825,11.55245 C4.7992,10.7233 4.43485,9.65475 4.43485,8.3454 C4.43485,7.03745 4.7992,5.94825 5.52825,5.08025 C6.25835,4.2105 7.1519,3.77545 8.21065,3.77545 C9.26905,3.77545 10.1787,4.21575 10.9375,5.09425 C11.697,5.9738 12.0764,7.0623 12.0764,8.36045 C12.0764,9.65965 11.68685,10.7233 10.9074,11.55245 C10.12865,12.38125 9.219,12.79565 8.1809,12.79565 C7.14175,12.79565 6.25835,12.38125 5.52825,11.55245 L5.52825,11.55245 Z"/>
    <path id="snapchance_logo_white-k" d="M11.5318,0 C15.13435,0 18.1517,1.372 20.5814,4.11565 L20.5814,4.11565 L17.5329,7.57295 C15.9831,5.64515 14.056,4.6823 11.7523,4.6823 C9.90815,4.6823 8.33175,5.2843 7.02275,6.4883 C5.7134,7.69335 5.0589,9.3156 5.0589,11.35925 C5.0589,13.40185 5.677,15.0409 6.9125,16.2757 C8.14835,17.51225 9.6467,18.13 11.4058,18.13 C13.81485,18.13 15.78395,17.17765 17.31345,15.2705 L17.31345,15.2705 L20.45505,18.50695 C18.1390669,21.1166183 15.4386622,22.5119736 12.3529933,22.6963857 L10.8289245,22.6963857 C7.80972641,22.536851 5.29480636,21.4754268 3.28335,19.51285 C1.09445,17.3761 0,14.679 0,11.42155 C0,8.16445 1.1158,5.44635 3.34635,3.26795 C5.5776,1.08955 8.30585,0 11.5318,0 Z"/>
    <path id="snapchance_logo_white-m" d="M0,0 L0,22.2355 L4.4954,22.2355 L4.4954,13.54465 C4.4954,12.2857 4.82965,11.3323 5.4992,10.6827 C6.1684,10.03415 6.95205,9.70935 7.8512,9.70935 C9.66875,9.70935 10.5791,10.948 10.5791,13.42495 L10.5791,22.2355 L15.07345,22.2355 L15.07345,12.43655 C15.07345,10.43805 14.4942,8.83995 13.33535,7.6412 C12.17685,6.44245 10.7534,5.8429 9.06535,5.8429 C7.37625,5.8429 5.85305,6.53275 4.4954,7.91105 L4.4954,0 L0,0 L0,0 Z"/>
    <path id="snapchance_logo_white-o" d="M4.49505,2.0678 L4.49505,0.2695 L0,0.2695 L0,16.39155 L4.49505,16.39155 L4.49505,7.40145 C4.49505,6.14285 4.82965,5.18945 5.4992,4.5402 C6.16805,3.8913 6.95205,3.5665 7.85155,3.5665 C9.66875,3.5665 10.5784,4.8048 10.5784,7.2821 L10.5784,16.39155 L15.07275,16.39155 L15.07275,6.59295 C15.07275,4.59515 14.4984,2.99635 13.3511,1.7983 C12.20135,0.5992 10.7779,0 9.08005,0 C7.38185,0 5.8534,0.68915 4.49505,2.0678 L4.49505,2.0678 Z"/>
    <path id="snapchance_logo_white-q" d="M2.53225,2.32295 C0.84385,3.871 0,5.87895 0,8.3461 C0,10.8143 0.8344,12.8114 2.5025,14.33985 C4.17025,15.86795 6.21355,16.63235 8.63065,16.63235 C11.0474,16.63235 13.2951,15.5533 15.3734,13.3959 L12.70605,10.39885 C11.50765,11.8972 10.1591,12.64655 8.66075,12.64655 C7.52255,12.64655 6.52785,12.26715 5.6791,11.50765 C4.83035,10.7485 4.4058,9.6852 4.4058,8.31635 C4.4058,6.94855 4.83035,5.87895 5.6791,5.1107 C6.52785,4.34105 7.54145,3.9557 8.7213,3.9557 C9.45945,3.9557 10.2039,4.1258 10.9536,4.46565 C11.7026,4.80515 12.33645,5.285 12.85585,5.9045 L15.1935,2.84795 C14.294,1.90855 13.2503,1.1991 12.061,0.71995 C10.87345,0.23975 9.6992,0 8.5407,0 C6.2237,0 4.22065,0.7749 2.53225,2.32295 L2.53225,2.32295 Z"/>
    <path id="snapchance_logo_white-s" d="M2.4416,2.2477 C0.8134,3.7464 0,5.76415 0,8.302 C0,10.8381 0.79765,12.86145 2.3968,14.36995 C3.9949,15.87845 6.01755,16.63235 8.4651,16.63235 C10.91195,16.63235 13.0452,15.77345 14.8631,14.0553 L12.3466,11.32845 C11.3274,12.3872 10.02855,12.91605 8.45005,12.91605 C7.47145,12.91605 6.5919,12.6364 5.81385,12.0778 C5.03335,11.5185 4.5738,10.7989 4.43485,9.9197 L16.1819,9.9197 L16.1819,7.52255 C16.1819,5.18525 15.40735,3.3474 13.85965,2.0083 C12.31055,0.6699 10.4279,0 8.2103,0 C5.99305,0 4.0698,0.74935 2.4416,2.2477 L2.4416,2.2477 Z M5.84255,4.5255 C6.5821,3.98615 7.3962,3.71665 8.28555,3.71665 C9.17385,3.71665 9.9288,3.976 10.5483,4.4954 C11.1664,5.01515 11.5269,5.75435 11.62665,6.713 L4.5542,6.713 C4.6746,5.79425 5.1037,5.0652 5.84255,4.5255 L5.84255,4.5255 Z"/>
    <path id="snapchance_logo_white-u" d="M4.61615,0 C7.04095,1.48225 9.1294,3.1563 10.89235,4.95985 C13.3952,7.52115 15.25685,10.33025 16.60575,13.16315 C19.3067,18.83945 19.9976,24.5679 20.00145,29.02795 L20.00145,29.02795 L13.08405,29.02795 C13.0865,26.2269 12.74525,22.8592 11.67985,19.49395 C10.61165,16.12275 8.84485,12.7638 5.94545,9.79545 C4.35155,8.16585 2.4024,6.64895 0,5.3109 L0,5.3109"/>
  </defs>
  <g fill="none" fill-rule="evenodd" transform="translate(.521 .156)">
    <g transform="translate(0 7.113)">
      <mask id="snapchance_logo_white-b" fill="#fff">
        <use xlink:href="#snapchance_logo_white-a"/>
      </mask>
      <polygon fill="#FFF" points="0 22.81 16.59 22.81 16.59 -.038 0 -.038" mask="url(#snapchance_logo_white-b)"/>
    </g>
    <g transform="translate(38.543 12.82)">
      <mask id="snapchance_logo_white-d" fill="#fff">
        <use xlink:href="#snapchance_logo_white-c"/>
      </mask>
      <polygon fill="#FFF" points="0 17.049 14.431 17.049 14.431 0 0 0" mask="url(#snapchance_logo_white-d)"/>
    </g>
    <g transform="translate(42.24 43.312)">
      <mask id="snapchance_logo_white-f" fill="#fff">
        <use xlink:href="#snapchance_logo_white-e"/>
      </mask>
      <polygon fill="#FFF" points="0 17.049 14.431 17.049 14.431 0 0 0" mask="url(#snapchance_logo_white-f)"/>
    </g>
    <g transform="translate(20.02 13.028)">
      <mask id="snapchance_logo_white-h" fill="#fff">
        <use xlink:href="#snapchance_logo_white-g"/>
      </mask>
      <polygon fill="#FFF" points="0 16.392 15.073 16.392 15.073 0 0 0" mask="url(#snapchance_logo_white-h)"/>
    </g>
    <g transform="translate(56.752 13.028)">
      <mask id="snapchance_logo_white-j" fill="#fff">
        <use xlink:href="#snapchance_logo_white-i"/>
      </mask>
      <polygon fill="#FFF" points="0 22.206 16.601 22.206 16.601 0 0 0" mask="url(#snapchance_logo_white-j)"/>
    </g>
    <g transform="translate(.246 37.677)">
      <mask id="snapchance_logo_white-l" fill="#fff">
        <use xlink:href="#snapchance_logo_white-k"/>
      </mask>
      <polygon fill="#FFF" points="-.036 22.696 20.586 22.696 20.586 -.026 -.036 -.026" mask="url(#snapchance_logo_white-l)"/>
    </g>
    <g transform="translate(23.817 37.677)">
      <mask id="snapchance_logo_white-n" fill="#fff">
        <use xlink:href="#snapchance_logo_white-m"/>
      </mask>
      <polygon fill="#FFF" points="0 22.235 15.073 22.235 15.073 0 0 0" mask="url(#snapchance_logo_white-n)"/>
    </g>
    <g transform="translate(60.075 43.52)">
      <mask id="snapchance_logo_white-p" fill="#fff">
        <use xlink:href="#snapchance_logo_white-o"/>
      </mask>
      <polygon fill="#FFF" points="0 16.392 15.073 16.392 15.073 0 0 0" mask="url(#snapchance_logo_white-p)"/>
    </g>
    <g transform="translate(77.81 43.52)">
      <mask id="snapchance_logo_white-r" fill="#fff">
        <use xlink:href="#snapchance_logo_white-q"/>
      </mask>
      <polygon fill="#FFF" points="0 16.632 15.373 16.632 15.373 0 0 0" mask="url(#snapchance_logo_white-r)"/>
    </g>
    <g transform="translate(94.921 43.52)">
      <mask id="snapchance_logo_white-t" fill="#fff">
        <use xlink:href="#snapchance_logo_white-s"/>
      </mask>
      <polygon fill="#FFF" points="0 16.632 16.182 16.632 16.182 0 0 0" mask="url(#snapchance_logo_white-t)"/>
    </g>
    <polyline fill="#FFF" points="88.592 18.664 82.084 21.24 88.536 23.952 91.112 30.459 93.823 24.006 100.331 21.431 93.878 18.72 91.302 12.212 88.592 18.664"/>
    <g transform="translate(90.87)">
      <mask id="snapchance_logo_white-v" fill="#fff">
        <use xlink:href="#snapchance_logo_white-u"/>
      </mask>
      <path fill="#FFF" d="M0,5.3109 C2.4024,6.64895 4.35155,8.16585 5.94545,9.79545 C8.84485,12.7638 10.61165,16.12275 11.67985,19.49395 C12.74525,22.8592 13.0865,26.2269 13.08405,29.02795 L20.00145,29.02795 C19.9976,24.5679 19.3067,18.83945 16.60575,13.16315 C15.25685,10.33025 13.3952,7.52115 10.89235,4.95985 C9.1294,3.1563 7.04095,1.48225 4.61615,0 L0,5.3109" mask="url(#snapchance_logo_white-v)"/>
    </g>
    <path stroke="#FFF" stroke-width=".45" d="M112.13475,4.5178 C112.13475,6.8089 113.98275,8.66635 116.26195,8.66635 C118.54115,8.66635 120.3895,6.8089 120.3895,4.5178 C120.3895,2.2267 118.54115,0.36925 116.26195,0.36925 C113.98275,0.36925 112.13475,2.2267 112.13475,4.5178 L112.13475,4.5178 Z"/>
    <path fill="#FFF" d="M114.9638,2.39085 L114.9638,6.6073 L115.4314,6.6073 L115.4314,4.99275 L116.61965,4.99275 L117.3767,6.6073 L117.8926,6.6073 L117.0862,4.8944 C117.5986,4.72815 117.85655,4.319 117.85655,3.66905 C117.85655,3.23085 117.74385,2.90745 117.5188,2.7013 C117.29515,2.49305 116.96055,2.39085 116.5157,2.39085 L114.9638,2.39085 Z M115.4314,2.80525 L116.5157,2.80525 C117.0897,2.80525 117.3767,3.09925 117.3767,3.6911 C117.3767,4.2826 117.0911,4.57835 116.5213,4.57835 L115.4314,4.57835 L115.4314,2.80525 L115.4314,2.80525 Z"/>
  </g>
</svg>
